# xmcd
#
# Track frame offsets: 
#        150
#        2324
#        5687
#        8904
#        18045
#        25329
#        29882
#        39188
#        42705
#        46312
#        65563
#        72548
#        83521
#        92302
#        99300
#        104776
#        108103
#        111388
#        118867
#        130183
#        139395
#        147190
#        161414
#        167857
#        188954
#        199597
#        206970
#        218436
#        236408
#        271259
#
# Disc length: 3764 seconds
#
# Revision: 1
# Processed by: cddbd v1.5.2PL0 Copyright (c) Steve Scherf et al.
# Submitted via: ExactAudioCopy v1.0b4
#
DISCID=a00eb21e
DTITLE=Rodney Carrington - King Of The Mountains
DYEAR=2007
DGENRE=Comedy
TTITLE0=Intro
TTITLE1=Tee Off
TTITLE2=Massage
TTITLE3=TV Show
TTITLE4=Shopping On Rodeo Street
TTITLE5=Real Fancy Place
TTITLE6=Give It A Try
TTITLE7=Zoo
TTITLE8=Yoga Class
TTITLE9=Boxing
TTITLE10=Christmas With The Kids
TTITLE11=Home Movie
TTITLE12=Short Arms
TTITLE13=Wheel Of Fortune
TTITLE14=Travel Pillow
TTITLE15=The Apple
TTITLE16=Fun
TTITLE17=Changes
TTITLE18=Baby Back
TTITLE19=Fat Girl
TTITLE20=Put Your Clothes Back On
TTITLE21=Rap Star
TTITLE22=Rhymes With Truck
TTITLE23=Show Them To Me
TTITLE24=Baby Back
TTITLE25=Rhymes With Truck
TTITLE26=Rap Star
TTITLE27=Show Them To Me
TTITLE28=Tribute To Barry Martin
TTITLE29=Angel Friend
EXTD=
EXTT0=
EXTT1=
EXTT2=
EXTT3=
EXTT4=
EXTT5=
EXTT6=
EXTT7=
EXTT8=
EXTT9=
EXTT10=
EXTT11=
EXTT12=
EXTT13=
EXTT14=
EXTT15=
EXTT16=
EXTT17=
EXTT18=
EXTT19=
EXTT20=
EXTT21=
EXTT22=
EXTT23=
EXTT24=
EXTT25=
EXTT26=
EXTT27=
EXTT28=
EXTT29=
PLAYORDER=
